<?xml version="1.0" standalone="no"?>
<!DOCTYPE svg PUBLIC "-//W3C//DTD SVG 20010904//EN"
 "http://www.w3.org/TR/2001/REC-SVG-20010904/DTD/svg10.dtd">
<svg version="1.0" xmlns="http://www.w3.org/2000/svg"
 width="246.000000pt" height="205.000000pt" viewBox="0 0 246.000000 205.000000"
 preserveAspectRatio="xMidYMid meet">

<g transform="translate(0.000000,205.000000) scale(0.100000,-0.100000)"
fill="hsl(144 100% 23%)" stroke="none">
<path d="M1342 1943 c-38 -163 -62 -405 -62 -630 0 -56 -4 -104 -8 -107 -5 -3
-14 34 -21 82 -15 108 -71 368 -114 527 l-32 120 -8 -55 c-9 -54 -4 -360 10
-628 l6 -134 -55 55 c-43 43 -68 59 -111 72 -63 18 -48 -7 -132 223 -21 57
-39 102 -40 100 -1 -2 19 -147 46 -323 27 -176 48 -324 46 -328 -1 -5 -67 142
-147 325 -167 385 -230 526 -230 516 0 -4 25 -124 56 -265 54 -251 94 -449 94
-467 0 -12 -210 283 -255 359 -43 72 -41 57 22 -135 24 -74 75 -199 113 -277
38 -79 67 -143 64 -143 -7 0 -349 257 -439 330 -82 66 -136 102 -119 80 145
-199 227 -298 417 -508 77 -85 135 -157 131 -162 -5 -4 -33 -15 -63 -23 -54
-16 -54 -16 -95 12 -42 28 -100 60 -196 106 l-55 27 47 -48 c26 -27 79 -74
117 -104 39 -30 70 -57 70 -60 1 -3 -41 -56 -93 -118 -112 -134 -280 -352
-271 -352 3 0 23 15 43 34 20 19 93 80 162 136 69 55 149 121 178 146 l53 46
62 -38 c141 -86 327 -216 389 -273 l66 -61 336 0 336 0 42 47 c48 52 366 333
377 333 4 0 40 -66 80 -148 l72 -147 -5 78 c-3 42 -18 127 -32 187 l-27 110
75 78 c79 81 172 201 163 210 -3 3 -15 -4 -28 -15 -12 -11 -56 -44 -97 -73
-41 -29 -90 -64 -107 -78 l-33 -24 -10 26 c-11 31 -25 33 -40 7 -5 -11 -58
-61 -117 -112 -60 -51 -144 -126 -187 -168 l-79 -76 50 95 c165 311 276 516
283 523 4 5 45 -39 91 -96 46 -58 85 -104 88 -102 6 7 -39 137 -62 175 -11 19
-33 52 -49 72 l-29 37 45 95 c25 53 43 96 41 96 -3 0 -33 -30 -69 -67 l-64
-67 -27 32 c-15 18 -31 32 -35 32 -5 0 -36 -38 -69 -83 -83 -115 -98 -126 -70
-51 52 139 143 343 236 529 l101 200 -59 -64 c-33 -36 -126 -155 -207 -265
-228 -311 -247 -335 -254 -336 -3 0 3 33 13 73 10 39 39 176 64 302 25 127 49
245 55 264 5 19 8 37 5 39 -5 6 -160 -312 -275 -563 -40 -88 -77 -164 -82
-170 -4 -5 -8 72 -8 172 0 99 -5 261 -10 359 -11 199 -40 557 -45 562 -2 2
-12 -36 -23 -85z m-338 -803 c56 -63 94 -128 117 -200 18 -60 55 -318 46 -327
-4 -4 -225 532 -235 571 -4 16 -2 17 15 8 11 -6 37 -30 57 -52z m958 -187 c10
-9 18 -20 18 -25 0 -12 -211 -330 -216 -325 -2 2 16 46 40 98 24 52 62 133 84
182 22 48 44 87 48 87 4 0 16 -7 26 -17z m-1034 -360 c46 -64 67 -105 96 -193
20 -61 36 -116 34 -121 -4 -11 -248 435 -248 453 1 16 42 -33 118 -139z m556
-82 c-31 -155 -120 -431 -123 -382 -2 26 51 267 76 344 28 92 62 172 68 165 2
-2 -7 -59 -21 -127z m182 -66 c-9 -13 -16 -31 -16 -39 0 -8 -30 -72 -66 -143
l-66 -128 4 60 c5 71 46 161 110 240 42 51 66 58 34 10z m-976 -10 c12 -7 172
-205 166 -205 -6 0 -232 183 -256 207 -13 14 -10 15 33 9 27 -3 52 -8 57 -11z"/>
</g>
</svg>
